HIERARCHY
ROOT Hips
{
    OFFSET 0.000000 0.000000 0.000000
    CHANNELS 6 Xposition Yposition Zposition Zrotation Xrotation Yrotation
    JOINT Spine
    {
        OFFSET 0.000005 7.982487 0.000007
        CHANNELS 3 Zrotation Xrotation Yrotation
        JOINT Spine1
        {
            OFFSET -0.000008 23.674410 -0.000012
            CHANNELS 3 Zrotation Xrotation Yrotation
            JOINT Neck
            {
                OFFSET -0.000001 27.576822 -0.000003
                CHANNELS 3 Zrotation Xrotation Yrotation
                JOINT Head
                {
                    OFFSET 0.000004 17.278074 2.035177
                    CHANNELS 3 Zrotation Xrotation Yrotation
                    End Site
                    {
                        OFFSET 0.000000 20.351660 0.000000
                    }
                }
            }
            JOINT LeftShoulder
            {
                OFFSET 4.036571 20.304852 -0.371907
                CHANNELS 3 Zrotation Xrotation Yrotation
                JOINT LeftArm
                {
                    OFFSET 12.502554 0.000006 0.000005
                    CHANNELS 3 Zrotation Xrotation Yrotation
                    JOINT LeftForeArm
                    {
                        OFFSET 31.806923 0.000000 0.000000
                        CHANNELS 3 Zrotation Xrotation Yrotation
                        JOINT LeftHand
                        {
                            OFFSET 24.843233 0.000001 0.000000
                            CHANNELS 3 Zrotation Xrotation Yrotation
                            JOINT LeftHandThumb1
                            {
                                OFFSET 2.126752 -2.416754 3.383466
                                CHANNELS 3 Zrotation Xrotation Yrotation
                                JOINT LeftHandThumb2
                                {
                                    OFFSET 3.212140 0.000000 -0.000003
                                    CHANNELS 3 Zrotation Xrotation Yrotation
                                    JOINT LeftHandThumb3
                                    {
                                        OFFSET 2.745435 0.000002 0.000008
                                        CHANNELS 3 Zrotation Xrotation Yrotation
                                        End Site
                                        {
                                            OFFSET 2.793713 0.000000 0.000000
                                        }
                                    }
                                }
                            }
                            JOINT LeftHandIndex1
                            {
                                OFFSET 8.700333 -0.000002 3.383461
                                CHANNELS 3 Zrotation Xrotation Yrotation
                                JOINT LeftHandIndex2
                                {
                                    OFFSET 4.833514 -0.000005 0.000004
                                    CHANNELS 3 Zrotation Xrotation Yrotation
                                    JOINT LeftHandIndex3
                                    {
                                        OFFSET 2.416764 0.000004 -0.000007
                                        CHANNELS 3 Zrotation Xrotation Yrotation
                                        End Site
                                        {
                                            OFFSET 2.459254 0.000000 0.000000
                                        }
                                    }
                                }
                            }
                            JOINT LeftHandMiddle1
                            {
                                OFFSET 8.700328 -0.000006 1.121379
                                CHANNELS 3 Zrotation Xrotation Yrotation
                                JOINT LeftHandMiddle2
                                {
                                    OFFSET 5.316864 -0.000007 0.000004
                                    CHANNELS 3 Zrotation Xrotation Yrotation
                                    JOINT LeftHandMiddle3
                                    {
                                        OFFSET 2.900116 0.000004 0.000005
                                        CHANNELS 3 Zrotation Xrotation Yrotation
                                        End Site
                                        {
                                            OFFSET 2.951103 0.000000 0.000000
                                        }
                                    }
                                }
                            }
                            JOINT LeftHandRing1
                            {
                                OFFSET 8.216979 -0.000004 -1.121373
                                CHANNELS 3 Zrotation Xrotation Yrotation
                                JOINT LeftHandRing2
                                {
                                    OFFSET 4.833515 -0.000005 0.000004
                                    CHANNELS 3 Zrotation Xrotation Yrotation
                                    JOINT LeftHandRing3
                                    {
                                        OFFSET 2.416764 0.000005 -0.000007
                                        CHANNELS 3 Zrotation Xrotation Yrotation
                                        End Site
                                        {
                                            OFFSET 2.459254 0.000000 0.000000
                                        }
                                    }
                                }
                            }
                            JOINT LeftHandPinky1
                            {
                                OFFSET 7.733625 -0.000007 -3.383456
                                CHANNELS 3 Zrotation Xrotation Yrotation
                                JOINT LeftHandPinky2
                                {
                                    OFFSET 3.866815 -0.000002 0.000004
                                    CHANNELS 3 Zrotation Xrotation Yrotation
                                    JOINT LeftHandPinky3
                                    {
                                        OFFSET 1.933414 0.000008 -0.000005
                                        CHANNELS 3 Zrotation Xrotation Yrotation
                                        End Site
                                        {
                                            OFFSET 1.967405 0.000000 0.000000
                                        }
                                    }
                                }
                            }
                        }
                    }
                }
            }
            JOINT RightShoulder
            {
                OFFSET -4.036570 20.304853 -0.371910
                CHANNELS 3 Zrotation Xrotation Yrotation
                JOINT RightArm
                {
                    OFFSET -12.502556 0.000005 -0.000008
                    CHANNELS 3 Zrotation Xrotation Yrotation
                    JOINT RightForeArm
                    {
                        OFFSET -31.806913 0.000006 -0.000009
                        CHANNELS 3 Zrotation Xrotation Yrotation
                        JOINT RightHand
                        {
                            OFFSET -24.843220 0.000001 -0.000006
                            CHANNELS 3 Zrotation Xrotation Yrotation
                            JOINT RightHandThumb1
                            {
                                OFFSET -2.126750 -2.416762 3.383462
                                CHANNELS 3 Zrotation Xrotation Yrotation
                                JOINT RightHandThumb2
                                {
                                    OFFSET -3.212135 -0.000003 0.000001
                                    CHANNELS 3 Zrotation Xrotation Yrotation
                                    JOINT RightHandThumb3
                                    {
                                        OFFSET -2.745442 -0.000002 0.000002
                                        CHANNELS 3 Zrotation Xrotation Yrotation
                                        End Site
                                        {
                                            OFFSET -2.793713 0.000000 0.000000
                                        }
                                    }
                                }
                            }
                            JOINT RightHandIndex1
                            {
                                OFFSET -8.700327 0.000005 3.383456
                                CHANNELS 3 Zrotation Xrotation Yrotation
                                JOINT RightHandIndex2
                                {
                                    OFFSET -4.833513 -0.000001 -0.000007
                                    CHANNELS 3 Zrotation Xrotation Yrotation
                                    JOINT RightHandIndex3
                                    {
                                        OFFSET -2.416767 -0.000005 0.000002
                                        CHANNELS 3 Zrotation Xrotation Yrotation
                                        End Site
                                        {
                                            OFFSET -2.459254 0.000000 0.000000
                                        }
                                    }
                                }
                            }
                            JOINT RightHandMiddle1
                            {
                                OFFSET -8.700325 0.000010 1.121373
                                CHANNELS 3 Zrotation Xrotation Yrotation
                                JOINT RightHandMiddle2
                                {
                                    OFFSET -5.316871 -0.000001 -0.000004
                                    CHANNELS 3 Zrotation Xrotation Yrotation
                                    JOINT RightHandMiddle3
                                    {
                                        OFFSET -2.900104 0.000004 -0.000005
                                        CHANNELS 3 Zrotation Xrotation Yrotation
                                        End Site
                                        {
                                            OFFSET -2.951103 0.000000 0.000000
                                        }
                                    }
                                }
                            }
                            JOINT RightHandRing1
                            {
                                OFFSET -8.216980 0.000000 -1.121377
                                CHANNELS 3 Zrotation Xrotation Yrotation
                                JOINT RightHandRing2
                                {
                                    OFFSET -4.833513 0.000000 -0.000007
                                    CHANNELS 3 Zrotation Xrotation Yrotation
                                    JOINT RightHandRing3
                                    {
                                        OFFSET -2.416767 -0.000005 0.000001
                                        CHANNELS 3 Zrotation Xrotation Yrotation
                                        End Site
                                        {
                                            OFFSET -2.459254 0.000000 0.000000
                                        }
                                    }
                                }
                            }
                            JOINT RightHandPinky1
                            {
                                OFFSET -7.733623 0.000009 -3.383465
                                CHANNELS 3 Zrotation Xrotation Yrotation
                                JOINT RightHandPinky2
                                {
                                    OFFSET -3.866819 0.000000 0.000003
                                    CHANNELS 3 Zrotation Xrotation Yrotation
                                    JOINT RightHandPinky3
                                    {
                                        OFFSET -1.933409 -0.000003 -0.000004
                                        CHANNELS 3 Zrotation Xrotation Yrotation
                                        End Site
                                        {
                                            OFFSET -1.967405 0.000000 0.000000
                                        }
                                    }
                                }
                            }
                        }
                    }
                }
            }
        }
    }
    JOINT LeftUpLeg
    {
        OFFSET 10.175824 0.000004 -0.000004
        CHANNELS 3 Zrotation Xrotation Yrotation
        JOINT LeftLeg
        {
            OFFSET 0.000005 -42.882954 0.000006
            CHANNELS 3 Zrotation Xrotation Yrotation
            JOINT LeftFoot
            {
                OFFSET -0.000004 -39.006775 -0.000003
                CHANNELS 3 Zrotation Xrotation Yrotation
                JOINT LeftToeBase
                {
                    OFFSET -0.000002 -6.614287 15.263733
                    CHANNELS 3 Zrotation Xrotation Yrotation
                    End Site
                    {
                        OFFSET 0.000000 0.000000 4.070332
                    }
                }
            }
        }
    }
    JOINT RightUpLeg
    {
        OFFSET -10.175824 -0.000004 0.000004
        CHANNELS 3 Zrotation Xrotation Yrotation
        JOINT RightLeg
        {
            OFFSET 0.000001 -42.882954 -0.000003
            CHANNELS 3 Zrotation Xrotation Yrotation
            JOINT RightFoot
            {
                OFFSET 0.000002 -39.006771 0.000004
                CHANNELS 3 Zrotation Xrotation Yrotation
                JOINT RightToeBase
                {
                    OFFSET 0.000008 -6.614288 15.263751
                    CHANNELS 3 Zrotation Xrotation Yrotation
                    End Site
                    {
                        OFFSET 0.000000 0.000000 4.070332
                    }
                }
            }
        }
    }
}
MOTION
Frames:    5
Frame Time:    0.002778
6.698610    82.753601    226.173264    4.357479    -0.146895    5.136132    0.392556    8.232531    3.665943    1.962764    8.227957    3.441151    5.820438    -1.940714    -4.383389    5.820440    -1.940712    -4.383388    -5.050724    0.235259    -2.275501    -58.064503    13.097943    -15.527923    -14.980287    5.671350    -128.249924    17.892935    7.756207    23.143677    47.448219    38.866428    -34.355034    -35.000004    0.000000    0.000001    -0.000000    0.000000    -0.000000    -0.000000    10.000001    -0.000000    -0.000000    0.000000    -0.000000    -0.000000    0.000000    -0.000000    -0.000000    0.000000    -0.000000    -0.000000    0.000000    -0.000000    -0.000000    0.000000    -0.000000    -0.000000    0.000000    -0.000000    -0.000000    0.000000    -0.000000    -0.000000    0.000000    -0.000000    0.000001    -10.000010    -0.000022    -0.000000    0.000000    -0.000000    -0.000000    0.000000    -0.000000    1.608695    0.379790    6.280247    34.156155    -5.191053    46.228321    -14.435022    -13.512250    54.908192    -13.392587    8.484508    -31.620691    -47.448212    38.866421    34.355045    35.000000    -0.000002    -0.000005    -0.000000    0.000000    -0.000000    -0.000000    9.999999    0.000003    -0.000000    0.000000    -0.000000    -0.000000    0.000000    -0.000000    -0.000000    0.000000    -0.000000    -0.000000    0.000000    -0.000000    -0.000000    0.000000    -0.000000    -0.000000    0.000000    -0.000000    -0.000000    0.000000    -0.000000    -0.000000    0.000000    -0.000000    0.000006    -10.000002    0.000007    -0.000000    0.000000    -0.000000    -0.000000    0.000000    -0.000000    6.852984    -27.269920    -2.887298    -0.000000    63.930531    -0.000001    -18.094181    -36.751759    -7.344677    -0.000000    -1.813968    -0.000000    -25.159027    -24.189362    -4.311218    -0.000004    62.194241    0.000004    24.468826    -31.951351    3.441640    0.000000    -1.299687    -0.000000    
6.714981    82.677483    226.159760    4.307370    -0.236671    5.031105    0.389524    8.256769    3.670308    1.947601    8.252251    3.446599    5.800302    -1.920417    -4.317239    5.800299    -1.920421    -4.317241    -5.089737    0.230946    -2.265982    -58.141106    13.052993    -15.420954    -15.029025    5.735992    -128.125504    17.953741    7.748670    23.051638    47.448208    38.866428    -34.355030    -35.000004    0.000001    -0.000002    -0.000000    0.000000    -0.000000    -0.000006    10.000001    -0.000005    -0.000000    0.000000    -0.000000    -0.000000    0.000000    -0.000000    -0.000000    0.000000    -0.000000    -0.000000    0.000000    -0.000000    -0.000000    0.000000    -0.000000    -0.000000    0.000000    -0.000000    -0.000000    0.000000    -0.000000    -0.000000    0.000000    -0.000000    -0.000010    -10.000000    0.000001    -0.000000    0.000000    -0.000000    -0.000000    0.000000    -0.000000    1.590194    0.403185    6.259927    34.219795    -5.036359    46.101200    -14.376961    -13.579399    55.075268    -13.293303    8.421754    -31.629543    -47.448212    38.866428    34.355030    35.000008    -0.000000    -0.000002    -0.000000    0.000000    -0.000000    -0.000000    10.000003    -0.000000    -0.000000    0.000000    -0.000000    -0.000000    0.000000    -0.000000    -0.000000    0.000000    -0.000000    -0.000000    0.000000    -0.000000    -0.000000    0.000000    -0.000000    -0.000000    0.000000    -0.000000    -0.000000    0.000000    -0.000000    -0.000000    0.000000    -0.000000    0.000004    -10.000005    0.000005    -0.000000    0.000000    -0.000000    -0.000000    0.000000    -0.000000    6.902153    -27.275732    -2.874272    0.000002    64.176445    0.000000    -18.045706    -36.909374    -7.289399    -0.000000    -1.832421    0.000000    -25.136942    -24.277918    -4.303544    0.000005    62.396053    -0.000005    24.436817    -31.948961    3.546964    0.000000    -1.250774    -0.000002    
6.732620    82.603966    226.144623    4.259634    -0.324423    4.924781    0.386058    8.282208    3.674981    1.930278    8.277761    3.452585    5.772960    -1.905304    -4.262755    5.772961    -1.905304    -4.262754    -5.125693    0.226378    -2.245374    -58.239140    12.999216    -15.305117    -15.056309    5.774475    -127.997948    17.995321    7.746018    22.995352    47.448208    38.866428    -34.355030    -35.000004    -0.000005    -0.000010    -0.000000    0.000000    -0.000000    -0.000006    10.000001    -0.000010    -0.000000    0.000000    -0.000000    -0.000000    0.000000    -0.000000    -0.000000    0.000000    -0.000000    -0.000000    0.000000    -0.000000    -0.000000    0.000000    -0.000000    -0.000000    0.000000    -0.000000    -0.000000    0.000000    -0.000000    -0.000000    0.000000    -0.000000    0.000002    -10.000012    -0.000012    -0.000000    0.000000    -0.000000    -0.000000    0.000000    -0.000000    1.563810    0.429788    6.238488    34.281200    -4.871904    45.981728    -14.297463    -13.672252    55.248123    -13.225120    8.367232    -31.602320    -47.448212    38.866432    34.355034    35.000000    0.000001    0.000005    -0.000000    0.000000    -0.000000    -0.000001    9.999997    -0.000003    -0.000000    0.000000    -0.000000    -0.000000    0.000000    -0.000000    -0.000000    0.000000    -0.000000    -0.000000    0.000000    -0.000000    -0.000000    0.000000    -0.000000    -0.000000    0.000000    -0.000000    -0.000000    0.000000    -0.000000    -0.000000    0.000000    -0.000000    0.000007    -10.000002    0.000007    -0.000000    0.000000    -0.000000    -0.000000    0.000000    -0.000000    6.947346    -27.275328    -2.862499    -0.000001    64.407677    0.000001    -18.007523    -37.067799    -7.233501    0.000000    -1.864697    -0.000001    -25.116856    -24.376764    -4.293402    0.000004    62.604797    -0.000002    24.390524    -31.935219    3.636051    -0.000000    -1.223053    0.000000    
6.748403    82.534294    226.128433    4.208537    -0.409432    4.822355    0.382709    8.306437    3.678634    1.913534    8.302054    3.457525    5.752860    -1.895890    -4.205578    5.752859    -1.895891    -4.205581    -5.154169    0.221441    -2.238346    -58.318260    12.940262    -15.199773    -15.056490    5.781474    -127.890060    18.059771    7.770142    22.979324    47.448193    38.866417    -34.355022    -34.999996    0.000002    0.000003    -0.000000    0.000000    -0.000000    0.000000    9.999994    -0.000005    -0.000000    0.000000    -0.000000    -0.000000    0.000000    -0.000000    -0.000000    0.000000    -0.000000    -0.000000    0.000000    -0.000000    -0.000000    0.000000    -0.000000    -0.000000    0.000000    -0.000000    -0.000000    0.000000    -0.000000    -0.000000    0.000000    -0.000000    -0.000003    -10.000013    0.000007    -0.000000    0.000000    -0.000000    -0.000000    0.000000    -0.000000    1.548185    0.455969    6.211530    34.341133    -4.724104    45.856194    -14.263469    -13.739566    55.417664    -13.119277    8.304536    -31.623365    -47.448215    38.866432    34.355042    35.000008    -0.000001    -0.000005    -0.000000    0.000000    -0.000000    0.000000    10.000002    -0.000000    -0.000000    0.000000    -0.000000    -0.000000    0.000000    -0.000000    -0.000000    0.000000    -0.000000    -0.000000    0.000000    -0.000000    -0.000000    0.000000    -0.000000    -0.000000    0.000000    -0.000000    -0.000000    0.000000    -0.000000    -0.000000    0.000000    -0.000000    0.000002    -10.000002    0.000009    -0.000000    0.000000    -0.000000    -0.000000    0.000000    -0.000000    6.993221    -27.272692    -2.855894    0.000002    64.623871    -0.000001    -17.970436    -37.221725    -7.173012    -0.000000    -1.890805    0.000001    -25.090746    -24.480246    -4.278420    0.000001    62.814995    -0.000001    24.340525    -31.909698    3.719452    0.000000    -1.200672    -0.000000    
6.764472    82.468811    226.113312    4.155904    -0.491293    4.717181    0.379828    8.330218    3.682590    1.899125    8.325889    3.462520    5.745009    -1.889826    -4.145095    5.745006    -1.889829    -4.145099    -5.190898    0.232420    -2.230016    -58.387695    12.889740    -15.098864    -15.061981    5.800614    -127.788467    18.050285    7.762928    22.972994    47.448212    38.866428    -34.355026    -34.999992    0.000004    0.000004    -0.000000    0.000000    -0.000000    -0.000000    9.999993    0.000002    -0.000000    0.000000    -0.000000    -0.000000    0.000000    -0.000000    -0.000000    0.000000    -0.000000    -0.000000    0.000000    -0.000000    -0.000000    0.000000    -0.000000    -0.000000    0.000000    -0.000000    -0.000000    0.000000    -0.000000    -0.000000    0.000000    -0.000000    0.000008    -10.000010    0.000008    -0.000000    0.000000    -0.000000    -0.000000    0.000000    -0.000000    1.533898    0.484906    6.188056    34.386990    -4.570819    45.729778    -14.207953    -13.794060    55.603146    -13.020443    8.254096    -31.668442    -47.448208    38.866444    34.355026    34.999996    0.000003    0.000010    -0.000000    0.000000    -0.000000    -0.000003    10.000002    -0.000009    -0.000000    0.000000    -0.000000    -0.000000    0.000000    -0.000000    -0.000000    0.000000    -0.000000    -0.000000    0.000000    -0.000000    -0.000000    0.000000    -0.000000    -0.000000    0.000000    -0.000000    -0.000000    0.000000    -0.000000    -0.000000    0.000000    -0.000000    0.000002    -10.000005    0.000007    -0.000000    0.000000    -0.000000    -0.000000    0.000000    -0.000000    7.037633    -27.264927    -2.851073    -0.000002    64.827087    0.000002    -17.927691    -37.375584    -7.101750    0.000000    -1.905635    -0.000001    -25.063768    -24.587465    -4.264363    0.000002    63.018303    -0.000003    24.284502    -31.878321    3.800122    -0.000000    -1.173425    0.000001    
